<svg width="393" height="410" viewBox="0 0 393 410" fill="none" xmlns="http://www.w3.org/2000/svg">
<path d="M330.883 213.195H62.4919V326.277H330.883V213.195Z" fill="#38BFF2" stroke="#263238" stroke-linecap="round" stroke-linejoin="round"/>
<path d="M93.3485 220.039H68.0999V234.019H93.3485V220.039Z" fill="white" stroke="#263238" stroke-miterlimit="10"/>
<path d="M324.669 288.202H284.9V302.182H324.669V288.202Z" fill="white" stroke="#263238" stroke-miterlimit="10"/>
<path d="M324.681 237.499H300.131V251.479H324.681V237.499Z" fill="white" stroke="#263238" stroke-miterlimit="10"/>
<path d="M93.3485 270.964H68.0999V284.943H93.3485V270.964Z" fill="white" stroke="#263238" stroke-miterlimit="10"/>
<path d="M88.5431 254.121H68.0999V268.1H88.5431V254.121Z" fill="white" stroke="#263238" stroke-miterlimit="10"/>
<path d="M82.0739 237.08H68.0999V251.06H82.0739V237.08Z" fill="white" stroke="#263238" stroke-miterlimit="10"/>
<path d="M99.9224 237.08H85.9484V251.06H99.9224V237.08Z" fill="white" stroke="#263238" stroke-miterlimit="10"/>
<path d="M117.759 237.08H103.785V251.06H117.759V237.08Z" fill="white" stroke="#263238" stroke-miterlimit="10"/>
<path d="M135.596 237.08H121.622V251.06H135.596V237.08Z" fill="white" stroke="#263238" stroke-miterlimit="10"/>
<path d="M153.445 237.08H139.471V251.06H153.445V237.08Z" fill="white" stroke="#263238" stroke-miterlimit="10"/>
<path d="M171.282 237.08H157.308V251.06H171.282V237.08Z" fill="white" stroke="#263238" stroke-miterlimit="10"/>
<path d="M189.118 237.08H175.144V251.06H189.118V237.08Z" fill="white" stroke="#263238" stroke-miterlimit="10"/>
<path d="M206.967 237.08H192.993V251.06H206.967V237.08Z" fill="white" stroke="#263238" stroke-miterlimit="10"/>
<path d="M224.804 237.08H210.83V251.06H224.804V237.08Z" fill="white" stroke="#263238" stroke-miterlimit="10"/>
<path d="M242.652 237.08H228.678V251.06H242.652V237.08Z" fill="white" stroke="#263238" stroke-miterlimit="10"/>
<path d="M260.489 237.08H246.515V251.06H260.489V237.08Z" fill="white" stroke="#263238" stroke-miterlimit="10"/>
<path d="M278.326 237.08H264.352V251.06H278.326V237.08Z" fill="white" stroke="#263238" stroke-miterlimit="10"/>
<path d="M296.174 237.08H282.2V251.06H296.174V237.08Z" fill="white" stroke="#263238" stroke-miterlimit="10"/>
<path d="M82.0739 305.441H68.0999V319.42H82.0739V305.441Z" fill="white" stroke="#263238" stroke-miterlimit="10"/>
<path d="M99.9224 305.441H85.9484V319.42H99.9224V305.441Z" fill="white" stroke="#263238" stroke-miterlimit="10"/>
<path d="M117.759 305.441H103.785V319.42H117.759V305.441Z" fill="white" stroke="#263238" stroke-miterlimit="10"/>
<path d="M138.68 305.441H121.622V319.42H138.68V305.441Z" fill="white" stroke="#263238" stroke-miterlimit="10"/>
<path d="M227.887 305.441H142.543V319.42H227.887V305.441Z" fill="white" stroke="#263238" stroke-miterlimit="10"/>
<path d="M288.391 305.441H274.417V319.42H288.391V305.441Z" fill="white" stroke="#263238" stroke-miterlimit="10"/>
<path d="M306.262 305.441H292.288V319.42H306.262V305.441Z" fill="white" stroke="#263238" stroke-miterlimit="10"/>
<path d="M253.077 305.441H231.378V319.42H253.077V305.441Z" fill="white" stroke="#263238" stroke-miterlimit="10"/>
<path d="M324.669 305.441H310.695V319.42H324.669V305.441Z" fill="white" stroke="#263238" stroke-miterlimit="10"/>
<path d="M106.485 254.121H92.5107V268.1H106.485V254.121Z" fill="white" stroke="#263238" stroke-miterlimit="10"/>
<path d="M124.322 254.121H110.348V268.1H124.322V254.121Z" fill="white" stroke="#263238" stroke-miterlimit="10"/>
<path d="M142.17 254.121H128.196V268.1H142.17V254.121Z" fill="white" stroke="#263238" stroke-miterlimit="10"/>
<path d="M160.007 254.121H146.033V268.1H160.007V254.121Z" fill="white" stroke="#263238" stroke-miterlimit="10"/>
<path d="M177.856 254.121H163.882V268.1H177.856V254.121Z" fill="white" stroke="#263238" stroke-miterlimit="10"/>
<path d="M195.692 254.121H181.718V268.1H195.692V254.121Z" fill="white" stroke="#263238" stroke-miterlimit="10"/>
<path d="M213.529 254.121H199.555V268.1H213.529V254.121Z" fill="white" stroke="#263238" stroke-miterlimit="10"/>
<path d="M231.378 254.121H217.404V268.1H231.378V254.121Z" fill="white" stroke="#263238" stroke-miterlimit="10"/>
<path d="M249.214 254.121H235.24V268.1H249.214V254.121Z" fill="white" stroke="#263238" stroke-miterlimit="10"/>
<path d="M267.052 254.121H253.078V268.1H267.052V254.121Z" fill="white" stroke="#263238" stroke-miterlimit="10"/>
<path d="M284.9 254.121H270.926V268.1H284.9V254.121Z" fill="white" stroke="#263238" stroke-miterlimit="10"/>
<path d="M302.737 254.121H288.763V268.1H302.737V254.121Z" fill="white" stroke="#263238" stroke-miterlimit="10"/>
<path d="M324.669 254.121V285.153H310.695V268.1H306.6V254.121H324.669Z" fill="white" stroke="#263238" stroke-miterlimit="10"/>
<path d="M110.581 271.162H96.6066V285.141H110.581V271.162Z" fill="white" stroke="#263238" stroke-miterlimit="10"/>
<path d="M128.417 271.162H114.443V285.141H128.417V271.162Z" fill="white" stroke="#263238" stroke-miterlimit="10"/>
<path d="M146.254 271.162H132.28V285.141H146.254V271.162Z" fill="white" stroke="#263238" stroke-miterlimit="10"/>
<path d="M164.103 271.162H150.129V285.141H164.103V271.162Z" fill="white" stroke="#263238" stroke-miterlimit="10"/>
<path d="M181.939 271.162H167.965V285.141H181.939V271.162Z" fill="white" stroke="#263238" stroke-miterlimit="10"/>
<path d="M199.788 271.162H185.814V285.141H199.788V271.162Z" fill="white" stroke="#263238" stroke-miterlimit="10"/>
<path d="M217.625 271.162H203.651V285.141H217.625V271.162Z" fill="white" stroke="#263238" stroke-miterlimit="10"/>
<path d="M235.462 271.162H221.488V285.141H235.462V271.162Z" fill="white" stroke="#263238" stroke-miterlimit="10"/>
<path d="M253.311 271.162H239.337V285.141H253.311V271.162Z" fill="white" stroke="#263238" stroke-miterlimit="10"/>
<path d="M271.147 271.162H257.173V285.141H271.147V271.162Z" fill="white" stroke="#263238" stroke-miterlimit="10"/>
<path d="M288.984 271.162H275.01V285.141H288.984V271.162Z" fill="white" stroke="#263238" stroke-miterlimit="10"/>
<path d="M306.832 271.162H292.858V285.141H306.832V271.162Z" fill="white" stroke="#263238" stroke-miterlimit="10"/>
<path d="M102.994 288.202H89.0202V302.182H102.994V288.202Z" fill="white" stroke="#263238" stroke-miterlimit="10"/>
<path d="M120.831 288.202H106.857V302.182H120.831V288.202Z" fill="white" stroke="#263238" stroke-miterlimit="10"/>
<path d="M138.68 288.202H124.706V302.182H138.68V288.202Z" fill="white" stroke="#263238" stroke-miterlimit="10"/>
<path d="M156.517 288.202H142.543V302.182H156.517V288.202Z" fill="white" stroke="#263238" stroke-miterlimit="10"/>
<path d="M174.365 288.202H160.391V302.182H174.365V288.202Z" fill="white" stroke="#263238" stroke-miterlimit="10"/>
<path d="M192.201 288.202H178.227V302.182H192.201V288.202Z" fill="white" stroke="#263238" stroke-miterlimit="10"/>
<path d="M210.039 288.202H196.065V302.182H210.039V288.202Z" fill="white" stroke="#263238" stroke-miterlimit="10"/>
<path d="M227.887 288.202H213.913V302.182H227.887V288.202Z" fill="white" stroke="#263238" stroke-miterlimit="10"/>
<path d="M245.724 288.202H231.75V302.182H245.724V288.202Z" fill="white" stroke="#263238" stroke-miterlimit="10"/>
<path d="M263.561 288.202H249.587V302.182H263.561V288.202Z" fill="white" stroke="#263238" stroke-miterlimit="10"/>
<path d="M281.409 288.202H267.435V302.182H281.409V288.202Z" fill="white" stroke="#263238" stroke-miterlimit="10"/>
<path d="M110.581 220.877H96.6066V234.857H110.581V220.877Z" fill="white" stroke="#263238" stroke-miterlimit="10"/>
<path d="M128.417 220.877H114.443V234.857H128.417V220.877Z" fill="white" stroke="#263238" stroke-miterlimit="10"/>
<path d="M146.254 220.877H132.28V234.857H146.254V220.877Z" fill="white" stroke="#263238" stroke-miterlimit="10"/>
<path d="M164.103 220.877H150.129V234.857H164.103V220.877Z" fill="white" stroke="#263238" stroke-miterlimit="10"/>
<path d="M181.939 220.877H167.965V234.857H181.939V220.877Z" fill="white" stroke="#263238" stroke-miterlimit="10"/>
<path d="M199.788 220.877H185.814V234.857H199.788V220.877Z" fill="white" stroke="#263238" stroke-miterlimit="10"/>
<path d="M217.625 220.877H203.651V234.857H217.625V220.877Z" fill="white" stroke="#263238" stroke-miterlimit="10"/>
<path d="M235.462 220.877H221.488V234.857H235.462V220.877Z" fill="white" stroke="#263238" stroke-miterlimit="10"/>
<path d="M253.311 220.877H239.337V234.857H253.311V220.877Z" fill="white" stroke="#263238" stroke-miterlimit="10"/>
<path d="M271.147 220.877H257.173V234.857H271.147V220.877Z" fill="white" stroke="#263238" stroke-miterlimit="10"/>
<path d="M288.984 220.877H275.01V234.857H288.984V220.877Z" fill="white" stroke="#263238" stroke-miterlimit="10"/>
<path d="M306.832 220.877H292.858V234.857H306.832V220.877Z" fill="white" stroke="#263238" stroke-miterlimit="10"/>
<path d="M324.669 220.877H310.695V234.857H324.669V220.877Z" fill="white" stroke="#263238" stroke-miterlimit="10"/>
<path d="M85.0293 288.202H68.0999V302.182H85.0293V288.202Z" fill="white" stroke="#263238" stroke-miterlimit="10"/>
<path d="M62.4919 213.917L68.1001 212.043H327.241L330.929 213.894L62.4919 213.917Z" fill="#263238"/>
<path d="M297.513 347.892L297.652 296.432C298.211 294.36 298.665 286.724 299.851 281.405C301.876 272.489 293.917 261.733 293.359 261.384C291.125 259.987 286.378 260.011 286.378 260.011C286.378 260.011 281.724 254.703 277.57 253.027C274.715 252.013 271.673 251.636 268.657 251.921C265.459 249.279 261.892 247.118 258.069 245.507C256.573 244.942 254.95 244.799 253.378 245.094C251.806 245.39 250.345 246.113 249.157 247.184L243.921 255.331C243.156 256.488 242.809 257.871 242.938 259.251C243.067 260.632 243.664 261.927 244.63 262.921C247.12 265.365 250.308 264.224 251.914 264.224C254.136 264.224 254.974 261.71 254.974 261.71C254.974 261.71 255.521 274.805 254.974 276.481C254.404 278.146 250.239 282.045 250.239 282.045L236.276 263.619C231.483 257.113 227.289 250.186 223.745 242.923C223.341 242.038 222.812 241.214 222.174 240.479C219.731 237.72 214.507 236.906 213.145 242.027C212.811 243.665 212.887 245.361 213.367 246.962C219.184 264.166 226.607 277.168 233.368 290.717C237.382 298.76 235.892 298.667 237.894 302.298C237.661 302.461 237.777 302.764 237.521 302.915C236.544 306.826 235.857 310.749 234.868 314.66C234.049 309.75 232.549 304.978 230.412 300.483C230.976 297.759 231.184 294.973 231.029 292.195C230.854 289.388 229.604 286.757 227.538 284.85C226.381 283.914 224.962 283.361 223.478 283.267C222.414 283.198 221.364 283.532 220.535 284.203C219.707 284.873 219.162 285.832 219.01 286.887C218.777 289.016 218.388 291.125 217.846 293.196C216.956 295.9 215.884 298.541 214.635 301.099C214.635 306.303 217.846 305.453 220.185 326.335C222 342.631 242.943 353.351 254.346 365.096L267.85 405.002C284.84 397.005 291.836 393.006 306.328 382.01L297.513 347.892Z" fill="white"/>
<path d="M227.829 319.724C227.968 319.468 228.085 319.211 228.201 318.944C228.078 319.031 227.978 319.149 227.913 319.285C227.848 319.422 227.819 319.573 227.829 319.724Z" fill="#92E3A9"/>
<path d="M261.373 247.72C259.776 246.471 257.877 245.667 255.87 245.391L261.373 247.72Z" fill="#92E3A9"/>
<path d="M255.172 253.167L255.242 253.749C255.282 253.552 255.258 253.348 255.172 253.167Z" fill="#92E3A9"/>
<g opacity="0.5">
<path opacity="0.5" d="M227.829 319.724C227.968 319.468 228.085 319.211 228.201 318.944C228.078 319.031 227.978 319.149 227.913 319.285C227.848 319.422 227.819 319.573 227.829 319.724Z" fill="white"/>
<path opacity="0.5" d="M261.373 247.72C259.776 246.471 257.877 245.667 255.87 245.391L261.373 247.72Z" fill="white"/>
<path opacity="0.5" d="M255.171 253.167L255.241 253.749C255.282 253.552 255.257 253.348 255.171 253.167Z" fill="white"/>
<path opacity="0.5" d="M261.582 303.649C261.059 302.345 258.522 298.597 257.045 301.193L261.582 303.649Z" fill="white"/>
</g>
<path d="M218.323 297.386C216.971 298.453 215.817 299.749 214.914 301.216L218.323 297.386Z" fill="white"/>
<path d="M267.85 405.002L254.462 365.061C243.06 353.316 222.116 342.572 220.301 326.3C217.974 305.418 214.751 306.268 214.751 301.065C216 298.506 217.073 295.866 217.962 293.161C218.505 291.09 218.894 288.981 219.126 286.852C219.279 285.797 219.824 284.839 220.652 284.168C221.48 283.497 222.531 283.163 223.594 283.232C225.079 283.326 226.498 283.879 227.655 284.815C229.72 286.723 230.971 289.353 231.145 292.16C231.3 294.938 231.093 297.724 230.529 300.448C232.666 304.943 234.165 309.715 234.985 314.625C235.974 310.714 236.66 306.791 237.638 302.88C237.894 302.729 237.777 302.426 238.01 302.263C236.009 298.632 237.498 298.771 233.484 290.682C226.724 277.133 219.312 264.131 213.483 246.927C213.003 245.326 212.927 243.63 213.262 241.992C214.623 236.871 219.847 237.685 222.291 240.444C222.928 241.18 223.457 242.003 223.862 242.888C227.406 250.151 231.6 257.078 236.393 263.584L250.355 282.01C250.355 282.01 254.52 278.111 255.091 276.446C255.637 274.77 255.091 261.675 255.091 261.675C255.091 261.675 254.253 264.189 252.031 264.189C250.425 264.189 247.237 265.353 244.747 262.886C243.771 261.908 243.158 260.627 243.008 259.254C242.857 257.88 243.18 256.497 243.921 255.331L249.122 247.184C250.31 246.113 251.771 245.39 253.343 245.094C254.915 244.799 256.538 244.942 258.034 245.507C261.857 247.118 265.424 249.279 268.622 251.921C271.638 251.636 274.68 252.013 277.535 253.027C281.724 254.715 286.343 260.011 286.343 260.011C286.343 260.011 291.079 260.011 293.324 261.384C293.883 261.733 301.841 272.489 299.817 281.405C298.653 286.724 298.176 294.36 297.618 296.432L297.478 347.892L306.828 382.01" stroke="#263238" stroke-miterlimit="10"/>
<path d="M269.937 253.737C271.986 261.329 273.05 269.153 273.102 277.017C273.036 278.334 273.177 279.654 273.521 280.928C273.701 281.561 274.041 282.137 274.507 282.602C274.974 283.066 275.551 283.404 276.185 283.581" stroke="#263238" stroke-miterlimit="10"/>
<path d="M286.39 261.384C289.88 268.671 286.308 284.943 286.564 286.096C286.674 286.675 286.906 287.223 287.245 287.705C287.584 288.187 288.023 288.591 288.53 288.889" stroke="#263238" stroke-miterlimit="10"/>
<path d="M256.394 252.736C255.986 255.064 255.649 257.741 255.23 260.057C253.876 258.891 252.767 257.467 251.968 255.869C251.169 254.27 250.696 252.528 250.576 250.745" stroke="#263238" stroke-miterlimit="10"/>
<path d="M234.1 314.846L231.587 315.952" stroke="#263238" stroke-miterlimit="10"/>
<path d="M234.741 316.86C234.339 318.803 234.339 320.807 234.741 322.75" stroke="#263238" stroke-miterlimit="10"/>
<path d="M249.447 295.105L252.228 300.122" stroke="#263238" stroke-miterlimit="10"/>
<path d="M254.799 276.749L257.568 272.838" stroke="#263238" stroke-miterlimit="10"/>
<path d="M293.743 295.105L292.905 298.178" stroke="#263238" stroke-miterlimit="10"/>
<path d="M286.971 286.759C287.747 284.152 288.565 281.544 289.426 278.937" stroke="#263238" stroke-miterlimit="10"/>
<path d="M295.116 272.849C295.852 272.463 296.711 272.385 297.505 272.632C298.299 272.878 298.962 273.43 299.351 274.165" stroke="#263238" stroke-miterlimit="10"/>
<path d="M278.443 259.487C279.408 259.216 280.426 259.191 281.404 259.414C282.381 259.638 283.287 260.103 284.039 260.768" stroke="#263238" stroke-miterlimit="10"/>
<path d="M226.619 267.251C227.522 266.26 228.646 265.498 229.899 265.024C231.153 264.551 232.501 264.381 233.833 264.527" stroke="#263238" stroke-miterlimit="10"/>
<path d="M216.112 245.298C216.944 244.698 217.886 244.268 218.884 244.032C219.882 243.796 220.917 243.76 221.93 243.924" stroke="#263238" stroke-miterlimit="10"/>
<path d="M218.323 297.386C216.971 298.453 215.817 299.749 214.914 301.216" stroke="#263238" stroke-miterlimit="10"/>
<path d="M219.393 292.09C221.232 290.787 224.164 293.72 225.851 292.218C226.15 291.881 226.359 291.474 226.459 291.034C226.558 290.595 226.545 290.137 226.421 289.704C226.173 288.838 226.059 287.939 226.084 287.039" stroke="#263238" stroke-miterlimit="10"/>
<path d="M271.275 284.024C273.514 288.673 273.969 293.983 272.555 298.946" stroke="#263238" stroke-miterlimit="10"/>
<path d="M284.796 291.206C285.158 293.406 284.747 295.664 283.632 297.596" stroke="#263238" stroke-miterlimit="10"/>
<path d="M167.855 290.552C167.354 288.224 164.085 288.585 164.085 288.585C153.09 289.225 151.612 306.464 151.612 306.464L147.668 318.278L146.504 300.516L146.62 277.62C146.62 277.62 149.948 255.714 148.47 252.28C148.133 251.333 147.519 250.509 146.708 249.915C145.896 249.322 144.925 248.986 143.921 248.951C137.522 247.345 137.149 256.575 137.149 256.575L131.751 275.408L129.47 295.72L127.632 294.731C127.632 294.731 126.759 273.185 127.131 272.824C127.504 272.463 129.714 257.925 129.714 257.925C129.714 257.925 130.878 255.225 132.425 251.779C132.863 250.812 133.089 249.762 133.089 248.701C133.089 247.639 132.863 246.589 132.425 245.622C129.831 240.326 124.432 242.793 123.315 245.622C122.004 248.494 120.527 251.289 118.894 253.991L112.727 270.857C112.96 274.675 110.772 293.497 110.772 293.497L108.55 292.496L104.978 281.438L107.7 270.112C107.7 270.112 113.646 263.594 112.611 259.753C111.575 255.912 106.583 257.052 106.583 257.052L96.5073 269.1H93.5404L86.5592 277.969C83.3901 287.482 82.8237 297.67 84.9186 307.476L86.5243 314.961V363.348C86.5243 363.348 81.7422 371.1 81.7422 371.833C81.7422 372.171 77.2164 380.384 74.4588 388.008C86.4742 395.866 99.4447 402.502 114.936 409C119.346 396.58 126.864 379.609 129.714 376.512C135.369 370.355 146.446 358.54 146.446 358.54C146.446 358.54 159.024 338.322 160.501 331.594C161.665 326.077 164.667 316.066 165.691 312.633C165.928 311.853 166.023 311.037 165.97 310.223C165.888 308.407 165.714 304.881 165.714 301.773C165.714 297.28 168.332 292.845 167.855 290.552Z" fill="white"/>
<path d="M74.4588 388.008C77.9568 380.011 82.865 368.855 82.865 368.518C82.865 367.784 87.6471 360.032 87.6471 360.032V311.657L86.0415 304.219C83.948 294.438 84.5023 284.276 87.6471 274.782L94.6283 265.912H97.5953L107.671 253.865C107.671 253.865 112.721 252.701 113.698 256.565C114.676 260.43 108.788 266.901 108.788 266.901L106.066 278.227L109.638 289.285L111.86 290.286C111.86 290.286 114.048 271.464 113.815 267.646L119.982 250.78C121.615 248.078 123.092 245.284 124.403 242.411C125.566 239.583 130.919 237.115 133.513 242.411C133.951 243.379 134.177 244.428 134.177 245.49C134.177 246.552 133.951 247.601 133.513 248.569C132.024 252.061 130.802 254.715 130.802 254.715C130.802 254.715 128.592 269.241 128.219 269.614C127.847 269.986 128.72 291.52 128.72 291.52L130.558 292.509L132.78 272.198L138.179 253.364C138.179 253.364 138.551 244.134 144.951 245.74C145.955 245.775 146.926 246.111 147.737 246.705C148.548 247.298 149.163 248.122 149.5 249.069C150.978 252.503 147.65 274.409 147.65 274.409L147.534 297.305L148.697 315.067L152.642 303.253C152.642 303.253 154.119 286.014 165.115 285.374C165.115 285.374 168.384 285.036 168.885 287.341C169.385 289.646 166.744 294.069 166.744 298.504C166.744 301.612 166.918 305.138 167 306.954C167.053 307.768 166.958 308.584 166.72 309.364C165.696 312.798 162.753 322.808 161.531 328.325C160.053 335.053 147.476 355.271 147.476 355.271C147.476 355.271 136.399 367.086 130.744 373.243C127.894 376.34 119.346 396.58 114.936 409" stroke="#263238" stroke-miterlimit="10"/>
<path d="M111.697 292.067C112.006 293.223 112.016 294.439 111.725 295.6C111.434 296.761 110.851 297.828 110.033 298.702" fill="white"/>
<path d="M111.697 292.067C112.006 293.223 112.016 294.439 111.725 295.6C111.434 296.761 110.851 297.828 110.033 298.702" stroke="#263238" stroke-miterlimit="10"/>
<path d="M92.9298 308.339C94.5239 305.86 96.083 302.461 95.6525 299.551C94.8147 293.836 92.1619 287.26 93.3836 281.603C94.1283 277.994 94.8846 274.374 95.6292 270.766" fill="white"/>
<path d="M92.9298 308.339C94.5239 305.86 96.083 302.461 95.6525 299.551C94.8147 293.836 92.1619 287.26 93.3836 281.603C94.1283 277.994 94.8846 274.374 95.6292 270.766" stroke="#263238" stroke-miterlimit="10"/>
<path d="M139.319 254.354C141.226 253.852 143.23 253.852 145.137 254.354C145.137 253.819 145.137 253.283 145.137 252.736" stroke="#263238" stroke-miterlimit="10"/>
<path d="M124.077 247.079C124.638 247.465 125.294 247.69 125.974 247.729C126.654 247.767 127.331 247.618 127.932 247.297C128.533 246.976 129.033 246.496 129.38 245.909C129.726 245.323 129.904 244.652 129.895 243.971" stroke="#263238" stroke-miterlimit="10"/>
<path d="M166.092 287.492C164.484 287.906 163.07 288.869 162.095 290.214C161.12 291.559 160.645 293.202 160.752 294.86L163.602 295.71" stroke="#263238" stroke-miterlimit="10"/>
<path d="M128.65 288.913C128.778 290.868 128.533 295.536 128.65 297.48V288.913Z" fill="white"/>
<path d="M128.65 288.913C128.778 290.868 128.533 295.536 128.65 297.48" stroke="#263238" stroke-miterlimit="10"/>
<path d="M130.791 291.613C130.558 294.818 130.322 298.019 130.081 301.216C130.081 300.809 130.081 300.401 130.081 299.994" fill="white"/>
<path d="M130.791 291.613C130.558 294.818 130.322 298.019 130.081 301.216C130.081 300.809 130.081 300.401 130.081 299.994" stroke="#263238" stroke-miterlimit="10"/>
<path d="M148.512 318.594C149.357 322.131 148.971 325.851 147.417 329.14L148.512 318.594Z" fill="white"/>
<path d="M148.512 318.594C149.357 322.131 148.971 325.851 147.417 329.14" stroke="#263238" stroke-miterlimit="10"/>
<path d="M119.051 301.821C116.514 304.603 116.887 311.273 118.679 314.951" stroke="#263238" stroke-miterlimit="10"/>
<path d="M137.795 306.407C137.81 309.534 136.708 312.564 134.688 314.951" stroke="#263238" stroke-miterlimit="10"/>
<path d="M100.574 303.148C100.153 305.984 100.768 308.878 102.308 311.296" stroke="#263238" stroke-miterlimit="10"/>
<path d="M89.7763 311.843C89.665 314.057 90.2956 316.245 91.5681 318.059" stroke="#263238" stroke-miterlimit="10"/>
<path d="M104.576 258.172C105.244 257.867 105.988 257.767 106.713 257.885C107.438 258.004 108.112 258.334 108.649 258.836L110.115 256.926" stroke="#263238" stroke-miterlimit="10"/>
<path d="M116.514 266.727C117.496 266.138 118.655 265.919 119.783 266.109C120.911 266.299 121.935 266.886 122.669 267.764" stroke="#263238" stroke-miterlimit="10"/>
<path d="M135.154 272.547C136.2 272.08 137.335 271.851 138.48 271.875C139.625 271.899 140.75 272.176 141.775 272.687" stroke="#263238" stroke-miterlimit="10"/>
<path d="M93.6742 282.313C94.2936 281.277 95.1975 280.441 96.2785 279.904C97.3594 279.367 98.5717 279.153 99.771 279.286" stroke="#263238" stroke-miterlimit="10"/>
<path d="M85.8675 293.44C85.905 292.687 86.199 291.969 86.7006 291.406C87.2022 290.843 87.8812 290.468 88.625 290.344" stroke="#263238" stroke-miterlimit="10"/>
<path d="M391.688 14.8747L1.3252 16.7138L7.22428 7.86753C8.61692 5.76302 10.5074 4.03505 12.728 2.83703C14.9485 1.639 17.4304 1.00799 19.9533 1H373.153C375.439 0.998357 377.697 1.50995 379.759 2.49707C381.821 3.48418 383.635 4.92166 385.068 6.70355L391.688 14.8747Z" fill="white" stroke="#263238" stroke-linecap="round" stroke-linejoin="round"/>
<path d="M203.29 73.4119H181.904C159.96 73.4119 142.17 91.2086 142.17 113.162V134.556C142.17 156.51 159.96 174.306 181.904 174.306H203.29C225.235 174.306 243.024 156.51 243.024 134.556V113.162C243.024 91.2086 225.235 73.4119 203.29 73.4119Z" fill="#757575" stroke="#263238" stroke-linecap="round" stroke-linejoin="round"/>
<path d="M160.495 132.391V146.731C160.495 148.892 161.354 150.965 162.881 152.493C164.408 154.021 166.48 154.879 168.64 154.879H217.822C219.972 154.879 222.035 154.029 223.561 152.514C225.087 150.998 225.952 148.941 225.967 146.79C226.037 140.33 226.374 132.391 226.374 132.391H160.495Z" fill="#999999" stroke="#263238" stroke-linecap="round" stroke-linejoin="round"/>
<path d="M340.493 137.175H52.8695C51.3902 137.178 49.9442 136.736 48.7197 135.906C47.4953 135.075 46.5492 133.895 46.0047 132.519L1.63942 18.5762C1.37024 17.8874 1.27337 17.1432 1.35724 16.4084C1.44111 15.6735 1.70318 14.9703 2.12066 14.3599C2.53813 13.7495 3.09837 13.2504 3.75263 12.906C4.40689 12.5616 5.13535 12.3823 5.87466 12.3838H387.511C388.246 12.3917 388.967 12.5779 389.614 12.9263C390.26 13.2746 390.813 13.7748 391.224 14.3838C391.635 14.9928 391.891 15.6925 391.972 16.4227C392.053 17.153 391.956 17.892 391.688 18.5762L347.323 132.484C346.786 133.861 345.848 135.045 344.63 135.881C343.412 136.718 341.971 137.169 340.493 137.175Z" fill="white" stroke="#263238" stroke-linecap="round" stroke-linejoin="round"/>
<path d="M342.634 127.246H50.0419L9.78387 19.6003H382.706L342.634 127.246Z" fill="white"/>
<path d="M226.037 137.024H160.81V141.493H226.037V137.024Z" fill="#263238"/>
<path d="M299.898 122.637H93.2789C92.1153 122.637 91.0681 122.124 90.8587 121.473L61.468 28.0626C61.1422 27.015 62.0614 26.1653 63.5275 26.1653H329.649C331.115 26.1653 332.035 27.015 331.697 28.0626L302.318 121.473C302.097 122.113 301.027 122.637 299.898 122.637Z" fill="#38BFF2"/>
<path d="M297.827 120.507H95.3732C94.9935 120.509 94.6235 120.388 94.319 120.161C94.0145 119.934 93.7923 119.614 93.686 119.249L69.7639 40.7268C69.6749 40.4592 69.6511 40.1742 69.6945 39.8955C69.7379 39.6168 69.8473 39.3526 70.0135 39.1248C70.1797 38.897 70.398 38.7122 70.6501 38.5859C70.9022 38.4597 71.1808 38.3955 71.4627 38.3988H321.714C321.996 38.3955 322.275 38.4597 322.527 38.5859C322.779 38.7122 322.997 38.897 323.163 39.1248C323.329 39.3526 323.439 39.6168 323.482 39.8955C323.526 40.1742 323.502 40.4592 323.413 40.7268L299.514 119.249C299.406 119.613 299.183 119.932 298.879 120.159C298.575 120.385 298.206 120.507 297.827 120.507Z" fill="#263238"/>
<path d="M123.484 58.8152H84.6567C83.6909 58.8152 83.0626 59.3275 83.2488 59.9796C83.4366 60.3548 83.7314 60.6657 84.096 60.873C84.4606 61.0803 84.8784 61.1746 85.2966 61.144H123.902C124.856 61.144 125.531 60.6317 125.427 59.9796C125.322 59.3275 124.438 58.8152 123.484 58.8152Z" fill="white"/>
<path d="M124.775 65.9041H91.7542C90.8117 65.9041 90.1951 66.4048 90.3579 67.0685C90.5358 67.439 90.8202 67.7478 91.1748 67.9553C91.5293 68.1628 91.9377 68.2595 92.3476 68.2329H125.24C126.183 68.2329 126.846 67.7322 126.741 67.0685C126.637 66.4048 125.718 65.9041 124.775 65.9041Z" fill="white"/>
<path opacity="0.5" d="M126.032 72.7483H88.5665C87.6357 72.7483 87.0307 73.2257 87.1936 73.8196C87.3807 74.1751 87.6677 74.4682 88.0191 74.6627C88.3705 74.8571 88.7711 74.9445 89.1715 74.9141H126.404C127.324 74.9141 127.987 74.4367 127.882 73.8429C127.777 73.249 126.963 72.7483 126.032 72.7483Z" fill="white"/>
<path d="M127.242 79.3596H105.24C104.332 79.3596 103.704 79.8254 103.843 80.396C103.983 80.9665 104.832 81.4323 105.74 81.4323H127.626C128.533 81.4323 129.185 80.9665 129.08 80.396C128.976 79.8254 128.161 79.3596 127.242 79.3596Z" fill="white"/>
<path d="M128.417 85.7385H92.2084C91.3241 85.7385 90.7191 86.1927 90.882 86.7399C91.0449 87.2872 91.8826 87.7413 92.7785 87.7413H128.848C129.732 87.7413 130.372 87.2989 130.279 86.7399C130.186 86.181 129.313 85.7385 128.417 85.7385Z" fill="white"/>
<path d="M129.546 91.9192H100.318C99.4335 91.9192 98.8401 92.35 98.9797 92.8857C99.1193 93.4213 99.9454 93.8521 100.818 93.8521H129.906C130.779 93.8521 131.407 93.4213 131.314 92.8857C131.221 92.35 130.43 91.9192 129.546 91.9192Z" fill="white"/>
<path d="M130.64 97.8904H101.889C101.016 97.8904 100.435 98.3096 100.574 98.8219C100.714 99.3343 101.517 99.7651 102.378 99.7651H130.989C131.85 99.7651 132.466 99.3459 132.373 98.8219C132.28 98.2979 131.512 97.8904 130.64 97.8904Z" fill="white"/>
<path d="M131.698 103.664H100.283C99.4337 103.664 98.852 104.071 98.9916 104.572C99.1312 105.073 99.9224 105.48 100.772 105.48H131.989C132.839 105.48 133.455 105.073 133.362 104.572C133.269 104.071 132.559 103.664 131.698 103.664Z" fill="white"/>
<path opacity="0.5" d="M132.734 109.262H112.442C111.604 109.262 111.022 109.658 111.139 110.147C111.255 110.636 112.034 111.021 112.861 111.021H133.025C133.862 111.021 134.467 110.625 134.386 110.147C134.304 109.67 133.571 109.262 132.734 109.262Z" fill="white"/>
<path opacity="0.5" d="M122.134 51.4588H93.1975C92.2201 51.4588 91.5686 51.9944 91.7431 52.6232C91.9304 53.0013 92.2268 53.3145 92.594 53.5221C92.9612 53.7297 93.3822 53.8222 93.8025 53.7876H122.565C123.542 53.7876 124.229 53.252 124.112 52.6232C123.95 52.243 123.671 51.9247 123.315 51.7151C122.959 51.5055 122.545 51.4157 122.134 51.4588Z" fill="white"/>
<path d="M120.727 43.8347H80.4452C79.4562 43.8347 78.8047 44.382 79.0025 45.069C79.1972 45.4637 79.5046 45.7916 79.8857 46.0113C80.2668 46.2311 80.7045 46.3327 81.1434 46.3033H121.192C122.169 46.3033 122.879 45.756 122.751 45.069C122.623 44.382 121.75 43.8347 120.727 43.8347Z" fill="white"/>
<path d="M133.723 114.687H100.341C99.5153 114.687 98.9568 115.071 99.0848 115.537C99.2128 116.003 99.9923 116.387 100.818 116.387H134.037C134.852 116.387 135.457 116.003 135.375 115.537C135.294 115.071 134.549 114.687 133.723 114.687Z" fill="white"/>
<path opacity="0.5" d="M137.121 61.3992H144.649L144.276 58.5242H136.69L137.121 61.3992Z" fill="white"/>
<path opacity="0.5" d="M138.168 68.3951H145.568L145.207 65.6248H137.749L138.168 68.3951Z" fill="white"/>
<path opacity="0.5" d="M139.18 75.1576H146.452L146.103 72.4805H138.784L139.18 75.1576Z" fill="white"/>
<path opacity="0.5" d="M140.169 81.6887H147.313L146.964 79.092H139.773L140.169 81.6887Z" fill="white"/>
<path opacity="0.5" d="M141.111 87.9858H148.139L147.802 85.4939H140.739L141.111 87.9858Z" fill="white"/>
<path opacity="0.5" d="M142.031 94.0849H148.93L148.616 91.6746H141.658L142.031 94.0849Z" fill="white"/>
<path opacity="0.5" d="M142.915 99.9981H149.71L149.408 97.646H142.566L142.915 99.9981Z" fill="white"/>
<path opacity="0.5" d="M143.764 105.702H150.454L150.163 103.443H143.426L143.764 105.702Z" fill="white"/>
<path opacity="0.5" d="M144.602 111.242H151.187L150.896 109.042H144.276L144.602 111.242Z" fill="white"/>
<path opacity="0.5" d="M136.027 54.1477H143.694L143.31 51.1562H135.585L136.027 54.1477Z" fill="white"/>
<path opacity="0.5" d="M134.898 46.6167H142.705L142.31 43.5205H134.433L134.898 46.6167Z" fill="white"/>
<path opacity="0.5" d="M145.405 116.596H151.885L151.606 114.466H145.09L145.405 116.596Z" fill="white"/>
<path d="M185.093 104.572C185.093 104.071 185.744 103.664 186.593 103.664H298.083C298.932 103.664 299.514 104.071 299.362 104.572C299.18 104.877 298.915 105.124 298.597 105.285C298.28 105.446 297.924 105.513 297.571 105.48H186.652C185.802 105.48 185.104 105.073 185.093 104.572Z" fill="white"/>
<path d="M299.212 99.7651H237.475C236.614 99.7651 235.962 99.3459 236.02 98.8219C236.079 98.2979 236.823 97.8904 237.696 97.8904H299.77C300.631 97.8904 301.213 98.3096 301.062 98.8219C300.878 99.1421 300.606 99.4019 300.277 99.5694C299.948 99.7369 299.578 99.8049 299.212 99.7651Z" fill="white"/>
<path opacity="0.5" d="M222.825 99.7651H203.627C202.766 99.7651 202.068 99.3459 202.08 98.8219C202.091 98.2979 202.79 97.8904 203.662 97.8904H222.977C223.838 97.8904 224.513 98.3096 224.466 98.8219C224.42 99.3343 223.686 99.7651 222.825 99.7651Z" fill="white"/>
<path d="M262.897 93.8521H175.819C174.946 93.8521 174.213 93.4213 174.178 92.8857C174.144 92.35 174.83 91.9192 175.714 91.9192H263.258C264.131 91.9192 264.771 92.35 264.666 92.8857C264.561 93.4213 263.782 93.8521 262.897 93.8521Z" fill="white"/>
<path opacity="0.5" d="M157.622 91.9192H163.823C164.696 91.9192 165.452 92.35 165.499 92.8857C165.545 93.4213 164.871 93.8521 163.998 93.8521H157.82C156.947 93.8521 156.191 93.4213 156.133 92.8857C156.074 92.35 156.738 91.9192 157.622 91.9192Z" fill="white"/>
<path d="M275.498 86.7399C275.382 87.2989 274.568 87.7413 273.672 87.7413H191.62C190.724 87.7413 190.003 87.2989 189.991 86.7399C189.979 86.181 190.701 85.7385 191.585 85.7385H274.091C274.987 85.7385 275.615 86.1927 275.498 86.7399Z" fill="white"/>
<path d="M156.959 85.7385H180.229C181.125 85.7385 181.87 86.1927 181.893 86.7399C181.916 87.2872 181.207 87.7413 180.322 87.7413H157.168C156.284 87.7413 155.516 87.2989 155.446 86.7399C155.376 86.181 156.063 85.7385 156.959 85.7385Z" fill="white"/>
<path d="M156.272 79.3596H245.794C246.701 79.3596 247.376 79.8254 247.295 80.396C247.213 80.9665 246.422 81.4323 245.514 81.4323H156.493C155.597 81.4323 154.806 80.9665 154.748 80.396C154.69 79.8254 155.364 79.3596 156.272 79.3596Z" fill="white"/>
<path d="M214.39 74.9143C213.471 74.9143 212.75 74.4369 212.773 73.843C212.796 73.2491 213.564 72.7717 214.495 72.7717H261.722C262.653 72.7717 263.316 73.2491 263.212 73.843C263.107 74.4369 262.281 74.9143 261.362 74.9143H214.39Z" fill="white"/>
<path d="M155.574 72.7483H196.449C197.379 72.7483 198.124 73.2257 198.124 73.8196C198.124 74.4134 197.379 74.9141 196.449 74.9141H155.807C154.876 74.9141 154.085 74.4367 154.015 73.8429C153.945 73.249 154.643 72.7483 155.574 72.7483Z" fill="white"/>
<path d="M308.287 68.1279H195.762C194.831 68.1279 194.063 67.6272 194.063 66.9635C194.063 66.2998 194.819 65.7991 195.762 65.7991H308.915C309.857 65.7991 310.474 66.2998 310.299 66.9635C310.115 67.3339 309.826 67.6418 309.468 67.8489C309.11 68.056 308.699 68.153 308.287 68.1279Z" fill="white"/>
<path d="M310.242 61.1091H211.342C210.388 61.1091 209.631 60.5968 209.655 59.9447C209.678 59.2926 210.469 58.7803 211.435 58.7803H311.009C311.964 58.7803 312.592 59.2926 312.406 59.9447C312.208 60.3377 311.894 60.6602 311.507 60.8685C311.12 61.0769 310.678 61.1609 310.242 61.1091Z" fill="white"/>
<path opacity="0.5" d="M312.382 53.8459H291.625C290.648 53.8459 289.985 53.3102 290.136 52.6815C290.317 52.3011 290.611 51.9856 290.977 51.7774C291.343 51.5692 291.764 51.4783 292.184 51.517H313.034C314.011 51.517 314.651 52.0527 314.453 52.6815C314.257 53.0546 313.957 53.363 313.59 53.5695C313.222 53.7761 312.803 53.8721 312.382 53.8459Z" fill="white"/>
<path d="M277.139 53.8459H201.01C200.044 53.8459 199.253 53.3103 199.264 52.6815C199.276 52.0527 200.055 51.5171 201.033 51.5171H277.663C278.64 51.5171 279.326 52.0527 279.187 52.6815C279.012 53.0674 278.72 53.3879 278.352 53.5971C277.984 53.8064 277.56 53.8935 277.139 53.8459Z" fill="white"/>
<path d="M159.46 109.262H229.772C230.61 109.262 231.25 109.658 231.192 110.147C231.133 110.636 230.435 111.021 229.597 111.021H159.658C158.82 111.021 158.099 110.625 158.052 110.147C158.006 109.67 158.622 109.262 159.46 109.262Z" fill="white"/>
<path d="M160.042 114.687H268.064C268.878 114.687 269.472 115.071 269.367 115.537C269.262 116.003 268.529 116.387 267.703 116.387H160.228C159.402 116.387 158.692 116.003 158.646 115.537C158.599 115.071 159.216 114.687 160.042 114.687Z" fill="white"/>
<path d="M273.358 46.3033H218.323C217.334 46.3033 216.566 45.756 216.601 45.069C216.636 44.382 217.462 43.8347 218.463 43.8347H273.823C274.824 43.8347 275.522 44.382 275.394 45.069C275.23 45.4647 274.944 45.7977 274.578 46.0197C274.212 46.2416 273.784 46.341 273.358 46.3033Z" fill="white"/>
<path opacity="0.5" d="M202.778 46.3033H152.746C151.757 46.3033 150.896 45.756 150.815 45.069C150.733 44.382 151.478 43.8347 152.479 43.8347H202.801C203.79 43.8347 204.593 44.382 204.582 45.069C204.57 45.756 203.767 46.3033 202.778 46.3033Z" fill="white"/>
<path opacity="0.5" d="M245.363 109.262C246.201 109.262 246.83 109.658 246.76 110.147C246.69 110.636 245.957 111.021 245.119 111.021H239.685C238.859 111.021 238.231 110.625 238.289 110.147C238.347 109.67 239.069 109.262 239.907 109.262H245.363Z" fill="white"/>
<path opacity="0.5" d="M178.682 104.572C178.682 105.073 178.042 105.48 177.192 105.48H169.792C168.943 105.48 168.222 105.073 168.187 104.572C168.152 104.071 168.803 103.664 169.653 103.664H177.088C177.949 103.664 178.658 104.071 178.682 104.572Z" fill="white"/>
<path opacity="0.5" d="M267.982 80.396C267.877 80.9665 267.063 81.4323 266.155 81.4323H257.499C256.591 81.4323 255.94 80.9665 256.021 80.396C256.103 79.8254 256.929 79.3596 257.836 79.3596H266.539C267.447 79.3596 268.099 79.8254 267.982 80.396Z" fill="white"/>
<path opacity="0.5" d="M294.988 85.7386C295.884 85.7386 296.489 86.1927 296.338 86.74C296.159 87.0728 295.885 87.3454 295.552 87.5235C295.219 87.7016 294.841 87.7774 294.464 87.7414H287.565C286.669 87.7414 286.064 87.2989 286.192 86.74C286.368 86.407 286.639 86.134 286.97 85.9557C287.302 85.7774 287.679 85.7018 288.053 85.7386H294.988Z" fill="white"/>
<path opacity="0.5" d="M182.137 68.1279C181.206 68.1279 180.427 67.6272 180.392 66.9635C180.357 66.2998 181.113 65.7991 182.056 65.7991H189.398C190.34 65.7991 191.108 66.2998 191.12 66.9635C191.131 67.6272 190.375 68.1279 189.444 68.1279H182.137Z" fill="white"/>
<path d="M82.1901 32.288C82.3534 32.6772 82.4147 33.1017 82.3681 33.5212C82.3215 33.9408 82.1686 34.3415 81.9239 34.6854C81.6792 35.0292 81.3508 35.3049 80.9698 35.4863C80.5888 35.6677 80.1678 35.7487 79.7467 35.7218C78.7301 35.6625 77.7534 35.3054 76.9382 34.6948C76.123 34.0842 75.5055 33.2472 75.1624 32.288C74.9904 31.8978 74.9214 31.47 74.962 31.0455C75.0027 30.621 75.1516 30.2141 75.3944 29.8636C75.6373 29.5132 75.966 29.231 76.3492 29.0441C76.7323 28.8571 77.157 28.7717 77.5825 28.796C78.6119 28.8492 79.6016 29.2105 80.4231 29.8331C81.2447 30.4558 81.8603 31.3111 82.1901 32.288Z" fill="white"/>
<path d="M91.6149 32.3462C91.7612 32.7448 91.8057 33.1736 91.7442 33.5937C91.6828 34.0139 91.5174 34.412 91.2631 34.7519C91.0088 35.0919 90.6736 35.3629 90.2881 35.5404C89.9025 35.7179 89.4787 35.7962 89.0552 35.7683C88.0515 35.7183 87.0867 35.3642 86.2887 34.753C85.4908 34.1418 84.8974 33.3025 84.5872 32.3462C84.4333 31.9457 84.382 31.5132 84.4379 31.0878C84.4938 30.6625 84.6551 30.2579 84.9072 29.9108C85.1593 29.5638 85.4941 29.2853 85.8812 29.1007C86.2684 28.9162 86.6955 28.8315 87.1237 28.8542C88.1411 28.9013 89.1189 29.2622 89.9231 29.8875C90.7272 30.5127 91.3182 31.3715 91.6149 32.3462Z" fill="white"/>
<path d="M101.19 32.288C101.321 32.6995 101.348 33.1368 101.271 33.5615C101.193 33.9862 101.013 34.3855 100.745 34.7243C100.478 35.0631 100.131 35.3312 99.7365 35.5051C99.3414 35.679 98.9098 35.7534 98.4794 35.7217C97.4849 35.6764 96.5295 35.321 95.7471 34.7052C94.9646 34.0894 94.3944 33.2442 94.1162 32.288C93.9791 31.878 93.9443 31.4407 94.0147 31.0142C94.085 30.5876 94.2585 30.1847 94.52 29.8405C94.7815 29.4964 95.1231 29.2213 95.515 29.0392C95.907 28.8572 96.3374 28.7737 96.769 28.796C97.7831 28.8259 98.7606 29.1817 99.5569 29.8106C100.353 30.4395 100.926 31.3081 101.19 32.288Z" fill="white"/>
<path d="M92.9992 173.969H68.4604C66.9175 173.969 65.4377 174.582 64.3467 175.673C63.2557 176.765 62.6428 178.245 62.6428 179.789V191.743C62.6428 193.286 63.2557 194.767 64.3467 195.858C65.4377 196.95 66.9175 197.563 68.4604 197.563H74.8714L79.735 208.586L86.5881 197.563H92.9992C94.5421 197.563 96.0218 196.95 97.1129 195.858C98.2039 194.767 98.8168 193.286 98.8168 191.743V179.742C98.8045 178.207 98.1862 176.738 97.0965 175.657C96.0068 174.575 94.5341 173.969 92.9992 173.969Z" fill="white" stroke="#263238" stroke-linecap="round" stroke-linejoin="round"/>
<path d="M77.315 180.836C77.315 180.527 77.4376 180.231 77.6558 180.013C77.874 179.795 78.1699 179.672 78.4785 179.672C78.7735 179.671 79.0577 179.783 79.2737 179.984C79.4897 180.185 79.6214 180.46 79.642 180.755C79.642 181.063 79.5194 181.359 79.3012 181.578C79.083 181.796 78.7871 181.919 78.4785 181.919C78.1835 181.919 77.8993 181.808 77.6833 181.607C77.4673 181.406 77.3356 181.13 77.315 180.836ZM77.5709 183.269H79.4442V191.254H77.536L77.5709 183.269Z" fill="#263238"/>
<path d="M83.9471 182.827V183.304H86.1462V184.805H84.0169V191.23H82.1902V184.805H80.8289V183.304H82.1902V182.792C82.1604 182.414 82.2144 182.034 82.3485 181.679C82.4826 181.325 82.6934 181.004 82.9658 180.74C83.2382 180.477 83.5654 180.277 83.9242 180.154C84.2829 180.032 84.6642 179.991 85.0408 180.033C85.6374 180.003 86.2293 180.153 86.7396 180.464L86.216 181.872C85.9111 181.662 85.5504 181.549 85.1804 181.546C84.3543 181.546 83.9471 182 83.9471 182.827Z" fill="#263238"/>
<path d="M167.721 175.645H143.171C141.628 175.645 140.148 176.258 139.057 177.349C137.966 178.441 137.353 179.921 137.353 181.465V193.407C137.353 194.951 137.966 196.431 139.057 197.523C140.148 198.614 141.628 199.227 143.171 199.227H149.593L154.445 210.25L161.299 199.227H167.721C169.264 199.227 170.744 198.614 171.835 197.523C172.926 196.431 173.539 194.951 173.539 193.407V181.418C173.527 179.883 172.908 178.414 171.818 177.333C170.729 176.252 169.256 175.645 167.721 175.645Z" fill="white" stroke="#263238" stroke-linecap="round" stroke-linejoin="round"/>
<path d="M148.337 189.508H142.066C142.189 190.09 142.52 190.607 142.999 190.961C143.477 191.315 144.068 191.481 144.66 191.429C145.062 191.443 145.463 191.373 145.835 191.223C146.208 191.072 146.545 190.845 146.825 190.556L147.825 191.72C147.221 192.321 146.458 192.737 145.625 192.919C144.793 193.101 143.926 193.042 143.126 192.749C142.326 192.456 141.626 191.94 141.108 191.263C140.591 190.586 140.277 189.775 140.204 188.926C140.188 188.382 140.283 187.841 140.485 187.335C140.687 186.83 140.99 186.371 141.376 185.988C141.763 185.605 142.224 185.305 142.73 185.108C143.237 184.91 143.779 184.819 144.323 184.84C144.867 184.818 145.41 184.91 145.916 185.111C146.422 185.313 146.881 185.618 147.261 186.007C147.642 186.397 147.936 186.862 148.126 187.373C148.315 187.884 148.395 188.429 148.36 188.973C148.36 189.101 148.349 189.333 148.337 189.508ZM142.054 188.274H146.58C146.524 187.722 146.259 187.211 145.84 186.848C145.42 186.484 144.878 186.295 144.323 186.319C143.768 186.298 143.225 186.488 142.804 186.85C142.383 187.213 142.115 187.722 142.054 188.274Z" fill="#263238"/>
<path d="M150.152 181.814H152.002V192.907H150.129L150.152 181.814Z" fill="#263238"/>
<path d="M153.561 192.115L154.271 190.695C155.108 191.208 156.07 191.482 157.052 191.487C158.215 191.487 158.727 191.161 158.727 190.602C158.727 189.077 153.794 190.509 153.794 187.331C153.794 185.818 155.155 184.829 157.284 184.829C158.322 184.812 159.348 185.048 160.275 185.515L159.553 186.936C158.848 186.526 158.042 186.32 157.226 186.342C156.063 186.342 155.551 186.714 155.551 187.238C155.551 188.856 160.484 187.413 160.484 190.544C160.484 192.034 159.111 193.012 156.865 193.012C155.703 193.019 154.56 192.709 153.561 192.115Z" fill="#263238"/>
<path d="M169.641 189.508H163.37C163.493 190.09 163.824 190.607 164.303 190.961C164.781 191.315 165.372 191.481 165.964 191.429C166.366 191.443 166.766 191.373 167.139 191.223C167.512 191.072 167.849 190.845 168.128 190.556L169.129 191.72C168.525 192.321 167.762 192.737 166.929 192.919C166.097 193.101 165.23 193.042 164.43 192.749C163.63 192.456 162.93 191.94 162.412 191.263C161.895 190.586 161.581 189.775 161.508 188.926C161.492 188.382 161.587 187.841 161.789 187.335C161.991 186.83 162.294 186.371 162.68 185.988C163.067 185.605 163.527 185.305 164.034 185.108C164.541 184.91 165.083 184.819 165.627 184.84C166.171 184.818 166.714 184.91 167.22 185.111C167.726 185.313 168.184 185.618 168.565 186.007C168.946 186.397 169.24 186.862 169.43 187.373C169.619 187.884 169.699 188.429 169.664 188.973C169.664 189.101 169.653 189.333 169.641 189.508ZM163.358 188.274H167.884C167.828 187.722 167.563 187.211 167.144 186.848C166.724 186.484 166.181 186.295 165.627 186.319C165.072 186.298 164.529 186.488 164.108 186.85C163.687 187.213 163.419 187.722 163.358 188.274Z" fill="#263238"/>
<path d="M240.162 174.935H215.612C214.069 174.935 212.589 175.548 211.498 176.639C210.407 177.731 209.794 179.211 209.794 180.755V192.709C209.794 194.252 210.407 195.733 211.498 196.824C212.589 197.915 214.069 198.529 215.612 198.529H222.035L226.887 209.552L233.74 198.529H240.162C241.705 198.529 243.185 197.915 244.276 196.824C245.367 195.733 245.98 194.252 245.98 192.709V180.708C245.968 179.172 245.35 177.704 244.26 176.623C243.17 175.541 241.697 174.935 240.162 174.935Z" fill="white" stroke="#263238" stroke-linecap="round" stroke-linejoin="round"/>
<path d="M221.243 183.793V184.328H223.442V185.83H221.302V192.255H219.486V185.83H218.172V184.328H219.486V183.816C219.457 183.438 219.511 183.058 219.645 182.704C219.779 182.349 219.99 182.028 220.262 181.765C220.534 181.501 220.862 181.301 221.22 181.179C221.579 181.056 221.96 181.015 222.337 181.057C222.93 181.028 223.518 181.178 224.024 181.488L223.501 182.896C223.202 182.681 222.845 182.564 222.477 182.559C221.651 182.501 221.243 182.943 221.243 183.793Z" fill="#263238"/>
<path d="M223.919 188.204C223.887 187.355 224.109 186.516 224.557 185.794C225.006 185.072 225.66 184.5 226.435 184.153C227.21 183.806 228.072 183.699 228.909 183.845C229.746 183.991 230.52 184.385 231.131 184.975C231.743 185.565 232.164 186.324 232.34 187.156C232.517 187.987 232.441 188.852 232.122 189.64C231.803 190.428 231.256 191.102 230.552 191.576C229.847 192.051 229.016 192.303 228.166 192.302C227.613 192.334 227.059 192.251 226.539 192.059C226.019 191.866 225.545 191.568 225.146 191.183C224.747 190.798 224.432 190.335 224.221 189.822C224.01 189.31 223.907 188.759 223.919 188.204ZM230.54 188.204C230.508 187.752 230.345 187.319 230.071 186.958C229.797 186.598 229.423 186.325 228.996 186.173C228.569 186.022 228.107 185.998 227.667 186.106C227.227 186.213 226.828 186.447 226.518 186.778C226.209 187.109 226.003 187.523 225.926 187.97C225.848 188.416 225.903 188.876 226.083 189.292C226.263 189.708 226.56 190.062 226.939 190.312C227.317 190.561 227.76 190.694 228.213 190.695C228.533 190.696 228.849 190.631 229.143 190.504C229.436 190.377 229.7 190.191 229.919 189.957C230.137 189.723 230.305 189.447 230.412 189.145C230.519 188.844 230.562 188.524 230.54 188.204Z" fill="#263238"/>
<path d="M238.824 184.119V185.899C238.681 185.889 238.537 185.889 238.393 185.899C238.069 185.874 237.743 185.921 237.44 186.038C237.136 186.155 236.862 186.339 236.639 186.576C236.416 186.812 236.248 187.096 236.149 187.406C236.05 187.716 236.022 188.045 236.066 188.367V192.243H234.193V184.212H235.973V185.376C236.299 184.937 236.733 184.591 237.233 184.37C237.732 184.15 238.281 184.063 238.824 184.119Z" fill="#263238"/>
<path d="M311.556 173.969H286.971C285.428 173.969 283.948 174.582 282.857 175.673C281.766 176.765 281.153 178.245 281.153 179.789V191.743C281.153 193.286 281.766 194.767 282.857 195.858C283.948 196.95 285.428 197.563 286.971 197.563H293.394L298.245 208.586L305.099 197.563H311.521C313.064 197.563 314.544 196.95 315.635 195.858C316.726 194.767 317.339 193.286 317.339 191.743V179.742C317.327 178.213 316.713 176.75 315.631 175.669C314.549 174.589 313.085 173.978 311.556 173.969Z" fill="white" stroke="#263238" stroke-linecap="round" stroke-linejoin="round"/>
<path d="M296.093 182.85H302.981V184.328H296.093V182.85ZM296.093 186.47H302.981V187.971H296.093V186.47Z" fill="#263238"/>
<path d="M130.418 160.152H105.868C104.325 160.152 102.845 160.765 101.754 161.857C100.663 162.948 100.05 164.428 100.05 165.972V177.915C100.05 179.458 100.663 180.938 101.754 182.03C102.845 183.121 104.325 183.735 105.868 183.735H112.29L117.142 194.757L123.996 183.735H130.418C131.961 183.735 133.441 183.121 134.532 182.03C135.623 180.938 136.236 179.458 136.236 177.915V165.925C136.224 164.39 135.605 162.922 134.516 161.84C133.426 160.759 131.953 160.152 130.418 160.152Z" fill="white" stroke="#263238" stroke-linecap="round" stroke-linejoin="round"/>
<path d="M112.372 165.111H115.932V166.612H114.234V177.612H115.932V179.113H112.372V165.111Z" fill="#263238"/>
<path d="M120.587 179.113V177.612H122.274V166.612H120.587V165.111H124.077V179.078L120.587 179.113Z" fill="#263238"/>
<path d="M203.395 158.93H178.845C177.302 158.93 175.822 159.543 174.731 160.635C173.64 161.726 173.027 163.206 173.027 164.75V176.646C173.027 178.189 173.64 179.67 174.731 180.761C175.822 181.853 177.302 182.466 178.845 182.466H185.267L190.131 193.489L196.984 182.466H203.395C204.938 182.466 206.418 181.853 207.509 180.761C208.6 179.67 209.213 178.189 209.213 176.646V164.703C209.2 163.168 208.582 161.699 207.492 160.618C206.403 159.537 204.93 158.93 203.395 158.93Z" fill="white" stroke="#263238" stroke-linecap="round" stroke-linejoin="round"/>
<path d="M186.128 170.838C186.721 171.035 187.012 171.443 187.012 172.362V175.214C186.986 175.368 186.996 175.526 187.041 175.675C187.086 175.824 187.166 175.961 187.273 176.074C187.38 176.187 187.513 176.273 187.659 176.326C187.806 176.379 187.963 176.397 188.118 176.378H188.432V177.88H187.675C187.339 177.93 186.995 177.902 186.671 177.798C186.347 177.695 186.051 177.518 185.806 177.282C185.561 177.046 185.373 176.756 185.258 176.436C185.142 176.116 185.101 175.774 185.139 175.435V172.362C185.139 171.862 184.883 171.641 184.464 171.641H183.975V170.116H184.464C184.883 170.116 185.139 169.895 185.139 169.394V166.31C185.101 165.972 185.141 165.629 185.257 165.31C185.373 164.99 185.561 164.701 185.806 164.466C186.051 164.23 186.348 164.055 186.672 163.953C186.996 163.851 187.34 163.825 187.675 163.877H188.432V165.378H188.071C187.916 165.357 187.758 165.373 187.61 165.425C187.462 165.477 187.328 165.564 187.221 165.677C187.113 165.791 187.033 165.929 186.989 166.079C186.945 166.23 186.937 166.388 186.966 166.542V169.383C187.012 170.244 186.721 170.651 186.128 170.838Z" fill="#263238"/>
<path d="M197.531 170.081V171.606H197.019C196.611 171.606 196.355 171.827 196.355 172.327V175.4C196.391 175.739 196.349 176.082 196.232 176.402C196.114 176.722 195.926 177.011 195.68 177.247C195.434 177.483 195.137 177.659 194.813 177.763C194.488 177.866 194.144 177.894 193.807 177.845H193.051V176.343H193.365C193.524 176.369 193.687 176.357 193.84 176.308C193.993 176.259 194.132 176.174 194.246 176.06C194.359 175.946 194.444 175.807 194.494 175.654C194.543 175.501 194.555 175.338 194.529 175.179V172.327C194.529 171.408 194.796 171 195.39 170.802C194.796 170.616 194.529 170.209 194.529 169.278V166.438C194.558 166.278 194.548 166.114 194.499 165.96C194.451 165.805 194.366 165.665 194.252 165.551C194.137 165.436 193.997 165.351 193.843 165.303C193.688 165.255 193.524 165.245 193.365 165.274H193.051V163.842H193.807C194.144 163.79 194.487 163.816 194.812 163.918C195.137 164.02 195.434 164.196 195.68 164.431C195.926 164.666 196.115 164.954 196.232 165.274C196.349 165.594 196.391 165.936 196.355 166.275V169.359C196.355 169.86 196.611 170.081 197.019 170.081H197.531Z" fill="#263238"/>
<path d="M275.604 156.509H251.053C249.51 156.509 248.03 157.122 246.939 158.214C245.848 159.305 245.236 160.785 245.236 162.329V174.271C245.236 175.815 245.848 177.295 246.939 178.387C248.03 179.478 249.51 180.091 251.053 180.091H257.464L262.328 191.114L269.181 180.091H275.604C277.146 180.091 278.626 179.478 279.717 178.387C280.808 177.295 281.421 175.815 281.421 174.271V162.282C281.409 160.747 280.791 159.279 279.701 158.197C278.611 157.116 277.138 156.509 275.604 156.509Z" fill="white" stroke="#263238" stroke-linecap="round" stroke-linejoin="round"/>
<path d="M262.351 165.344C262.334 165.172 262.354 164.999 262.408 164.836C262.462 164.673 262.549 164.522 262.665 164.395C262.781 164.267 262.922 164.165 263.079 164.096C263.236 164.026 263.406 163.99 263.578 163.99C263.751 163.99 263.921 164.026 264.078 164.096C264.235 164.165 264.376 164.267 264.492 164.395C264.607 164.522 264.695 164.673 264.749 164.836C264.803 164.999 264.823 165.172 264.806 165.344C264.823 165.515 264.803 165.688 264.749 165.851C264.695 166.015 264.607 166.165 264.492 166.292C264.376 166.42 264.235 166.522 264.078 166.591C263.921 166.661 263.751 166.697 263.578 166.697C263.406 166.697 263.236 166.661 263.079 166.591C262.922 166.522 262.781 166.42 262.665 166.292C262.549 166.165 262.462 166.015 262.408 165.851C262.354 165.688 262.334 165.515 262.351 165.344ZM264.806 171.047C264.774 171.493 264.656 171.928 264.457 172.327L263.689 174.446H262.525L263.13 172.118C262.915 172.027 262.731 171.872 262.605 171.675C262.478 171.478 262.414 171.247 262.421 171.012C262.421 170.69 262.549 170.38 262.777 170.152C263.005 169.924 263.314 169.796 263.637 169.796C263.959 169.796 264.268 169.924 264.496 170.152C264.724 170.38 264.853 170.69 264.853 171.012L264.806 171.047Z" fill="#263238"/>
<path d="M179.636 365.375H204.174C205.717 365.375 207.197 364.762 208.288 363.67C209.379 362.579 209.992 361.098 209.992 359.555V347.647C209.977 346.114 209.357 344.648 208.268 343.569C207.178 342.491 205.707 341.885 204.174 341.885H197.763L195.89 330.863L186.047 341.885H179.636C178.103 341.885 176.632 342.491 175.542 343.569C174.453 344.648 173.833 346.114 173.818 347.647V359.601C173.83 361.137 174.448 362.605 175.538 363.687C176.628 364.768 178.101 365.375 179.636 365.375Z" fill="white" stroke="#263238" stroke-linecap="round" stroke-linejoin="round"/>
<path d="M188.257 351.174L183.103 353.106L188.257 355.039V356.598L181.369 353.921V352.292L188.257 349.615V351.174Z" fill="#263238"/>
<path d="M193.703 345.738H195.367L190.399 359.834H188.77L193.703 345.738Z" fill="#263238"/>
<path d="M202.615 352.292V353.91L195.727 356.587V355.027L200.87 353.106L195.716 351.186V349.615L202.615 352.292Z" fill="#263238"/>
<path d="M23.583 278.367H48.1218C49.6647 278.367 51.1445 277.753 52.2355 276.662C53.3265 275.571 53.9394 274.09 53.9394 272.547V260.651C53.9394 259.107 53.3265 257.627 52.2355 256.535C51.1445 255.444 49.6647 254.831 48.1218 254.831H41.7108L43.107 243.808L29.9941 254.831H23.583C22.0401 254.831 20.5604 255.444 19.4693 256.535C18.3783 257.627 17.7654 259.107 17.7654 260.651V272.593C17.7777 274.129 18.396 275.597 19.4857 276.679C20.5754 277.76 22.0481 278.367 23.583 278.367Z" fill="white" stroke="#263238" stroke-linecap="round" stroke-linejoin="round"/>
<path d="M30.8554 270.789C30.8554 270.48 30.978 270.184 31.1962 269.966C31.4144 269.748 31.7104 269.625 32.019 269.625C32.3276 269.625 32.6235 269.748 32.8417 269.966C33.0599 270.184 33.1825 270.48 33.1825 270.789C33.1825 271.098 33.0599 271.394 32.8417 271.612C32.6235 271.83 32.3276 271.953 32.019 271.953C31.7104 271.953 31.4144 271.83 31.1962 271.612C30.978 271.394 30.8554 271.098 30.8554 270.789ZM30.9951 261.384H33.2058L32.8334 268.368H31.3209L30.9951 261.384Z" fill="#263238"/>
<path d="M35.1022 264.061H41.9903V265.563H35.1022V264.061ZM35.1022 267.681H41.9903V269.183H35.1022V267.681Z" fill="#263238"/>
</svg>
