<svg width="60" height="60" fill="none" xmlns="http://www.w3.org/2000/svg"><g clip-path="url(#a)"><path d="M59.373 3.125v8.056H.625V3.125a2.5 2.5 0 0 1 2.5-2.5h53.748a2.5 2.5 0 0 1 2.5 2.5Z" fill="#38BFF2"/><path d="M59.375 11.181v45.694a2.5 2.5 0 0 1-2.5 2.5H3.125a2.5 2.5 0 0 1-2.5-2.5V11.18h58.75Z" fill="#fff"/><path d="M55 28.357v-11.55c0-.691-.56-1.25-1.25-1.25H6.25c-.69 0-1.25.559-1.25 1.25v11.55c0 .69.56 1.25 1.25 1.25h47.5c.69 0 1.25-.56 1.25-1.25Z" fill="#38BFF2"/><path d="M27.837 5.903c0 .82-.664 1.485-1.484 1.485H5.86a1.484 1.484 0 1 1 0-2.969h20.493c.82 0 1.484.665 1.484 1.484ZM54.096 7.431a1.528 1.528 0 1 0 0-3.056 1.528 1.528 0 0 0 0 3.056ZM47.955 7.431a1.528 1.528 0 1 0 0-3.056 1.528 1.528 0 0 0 0 3.056ZM41.814 7.431a1.528 1.528 0 1 0 0-3.056 1.528 1.528 0 0 0 0 3.056Z" fill="#fff"/><path d="M36.875 43.257V35.23c0-.69-.56-1.25-1.25-1.25h-11.25c-.69 0-1.25.56-1.25 1.25v8.026c0 .69.56 1.25 1.25 1.25h11.25c.69 0 1.25-.56 1.25-1.25ZM18.75 43.257V35.23c0-.69-.56-1.25-1.25-1.25H6.25c-.69 0-1.25.56-1.25 1.25v8.026c0 .69.56 1.25 1.25 1.25H17.5c.69 0 1.25-.56 1.25-1.25ZM55 43.257V35.23c0-.69-.56-1.25-1.25-1.25H42.5c-.69 0-1.25.56-1.25 1.25v8.026c0 .69.56 1.25 1.25 1.25h11.25c.69 0 1.25-.56 1.25-1.25Z" fill="#38BFF2"/><g fill="#1A2E35"><path d="M59.998 3.125A3.129 3.129 0 0 0 56.874 0H3.125A3.129 3.129 0 0 0 0 3.125v53.75a3.129 3.129 0 0 0 3.125 3.124h53.75a3.129 3.129 0 0 0 3.124-3.124V3.125Zm-58.748 0c0-1.034.841-1.875 1.875-1.875h53.748c1.034 0 1.876.841 1.876 1.875v7.431H1.25v-7.43ZM56.875 58.75H3.125a1.877 1.877 0 0 1-1.875-1.875V11.806h57.5v45.069c0 1.034-.841 1.875-1.875 1.875Z"/><path d="M53.75 14.931H6.25a1.877 1.877 0 0 0-1.875 1.875v11.55c0 1.034.841 1.875 1.875 1.875h47.5a1.877 1.877 0 0 0 1.875-1.875v-11.55a1.877 1.877 0 0 0-1.875-1.875Zm.625 13.425c0 .345-.28.625-.625.625H6.25a.625.625 0 0 1-.625-.625v-11.55c0-.345.28-.625.625-.625h47.5c.345 0 .625.28.625.625v11.55ZM26.353 3.794H5.86c-1.164 0-2.11.946-2.11 2.11 0 1.163.946 2.11 2.11 2.11h20.493c1.163 0 2.11-.947 2.11-2.11 0-1.164-.946-2.11-2.11-2.11Zm0 2.969H5.86a.86.86 0 0 1-.86-.86.86.86 0 0 1 .86-.859h20.493a.86.86 0 0 1 .86.86.86.86 0 0 1-.86.859ZM54.095 3.75a2.156 2.156 0 0 0-2.153 2.154c0 1.187.966 2.152 2.153 2.152a2.156 2.156 0 0 0 2.154-2.152 2.156 2.156 0 0 0-2.154-2.154Zm0 3.056A.903.903 0 1 1 54.096 5a.903.903 0 0 1 0 1.806ZM47.955 3.75a2.156 2.156 0 0 0-2.153 2.154c0 1.187.966 2.152 2.153 2.152a2.155 2.155 0 0 0 2.153-2.152 2.155 2.155 0 0 0-2.153-2.154Zm0 3.056A.904.904 0 1 1 47.956 5a.904.904 0 0 1 0 1.807ZM41.815 3.75a2.156 2.156 0 0 0-2.154 2.154c0 1.187.966 2.152 2.154 2.152a2.155 2.155 0 0 0 2.152-2.152 2.155 2.155 0 0 0-2.152-2.154Zm0 3.056a.904.904 0 1 1 0-1.807.904.904 0 0 1 0 1.807ZM18.75 48.256H5a.625.625 0 1 0 0 1.25h13.75a.625.625 0 1 0 0-1.25ZM18.75 54.375H5a.624.624 0 1 0 0 1.25h13.75a.625.625 0 1 0 0-1.25ZM18.75 51.316H5a.625.625 0 1 0 0 1.25h13.75a.625.625 0 1 0 0-1.25ZM36.875 48.256h-13.75a.625.625 0 1 0 0 1.25h13.75a.625.625 0 1 0 0-1.25ZM36.875 54.375h-13.75a.625.625 0 1 0 0 1.25h13.75a.625.625 0 1 0 0-1.25ZM36.875 51.316h-13.75a.625.625 0 1 0 0 1.25h13.75a.625.625 0 1 0 0-1.25ZM55 48.256H41.25a.625.625 0 1 0 0 1.25H55a.625.625 0 1 0 0-1.25ZM55 54.375H41.25a.624.624 0 1 0 0 1.25H55a.625.625 0 1 0 0-1.25ZM55 51.316H41.25a.625.625 0 1 0 0 1.25H55a.625.625 0 1 0 0-1.25ZM35.625 33.356h-11.25a1.877 1.877 0 0 0-1.875 1.875v8.026c0 1.034.841 1.875 1.875 1.875h11.25a1.877 1.877 0 0 0 1.875-1.875V35.23a1.877 1.877 0 0 0-1.875-1.875Zm.625 9.9c0 .346-.28.626-.625.626h-11.25a.625.625 0 0 1-.625-.625V35.23c0-.345.28-.625.625-.625h11.25c.345 0 .625.28.625.625v8.026ZM17.5 33.356H6.25a1.877 1.877 0 0 0-1.875 1.875v8.026c0 1.034.841 1.875 1.875 1.875H17.5a1.877 1.877 0 0 0 1.875-1.875V35.23a1.877 1.877 0 0 0-1.875-1.875Zm.625 9.9c0 .346-.28.626-.625.626H6.25a.625.625 0 0 1-.625-.625V35.23c0-.345.28-.625.625-.625H17.5c.345 0 .625.28.625.625v8.026ZM53.75 33.356H42.5a1.877 1.877 0 0 0-1.875 1.875v8.026c0 1.034.84 1.875 1.875 1.875h11.25a1.877 1.877 0 0 0 1.875-1.875V35.23a1.877 1.877 0 0 0-1.875-1.875Zm.625 9.9c0 .346-.28.626-.625.626H42.5a.625.625 0 0 1-.625-.625V35.23c0-.345.28-.625.625-.625h11.25c.345 0 .625.28.625.625v8.026Z"/></g></g><defs><clipPath id="a"><path fill="#fff" d="M0 0h60v60H0z"/></clipPath></defs></svg>