<svg width="69" height="59" fill="none" xmlns="http://www.w3.org/2000/svg"><path d="M68.178 3.584v34.839H1.458V3.583C1.458 2 2.728.718 4.298.718h61.041c1.569 0 2.84 1.283 2.84 2.867Z" fill="#fff"/><path d="M1.458 38.424v6.404c0 1.583 1.271 2.866 2.84 2.866h61.041c1.568 0 2.84-1.283 2.84-2.866v-6.404H1.457Z" fill="#38BFF2"/><path d="M27.372 47.694h14.892v6.747H27.372v-6.747Z" fill="#D7E9FF"/><path d="m48.233 55.275 1.775 1.783c.449.451.132 1.225-.5 1.225h-29.38c-.632 0-.949-.774-.5-1.225l1.775-1.783a2.825 2.825 0 0 1 2.003-.834H46.23c.75 0 1.47.3 2.002.834Z" fill="#38BFF2"/><path d="M34.818 44.486a1.42 1.42 0 0 0 1.413-1.427 1.42 1.42 0 0 0-1.413-1.426 1.42 1.42 0 0 0-1.412 1.426 1.42 1.42 0 0 0 1.412 1.427Z" fill="#D7E9FF"/><path d="M68.888 3.584C68.888 1.608 67.296 0 65.34 0H4.297C2.34 0 .748 1.608.748 3.584v41.244c0 1.976 1.592 3.584 3.55 3.584h22.365v5.312h-3.258c-.944 0-1.833.371-2.502 1.044l-1.775 1.782c-.896.9-.264 2.45 1 2.45h29.38c1.264 0 1.897-1.55 1-2.45l-1.775-1.782a3.504 3.504 0 0 0-2.502-1.044h-3.257v-5.312h22.365c1.957 0 3.55-1.608 3.55-3.584V3.584Zm-66.72 0c0-1.186.955-2.15 2.13-2.15h61.041c1.175 0 2.13.964 2.13 2.15v34.122H2.168V3.584Zm45.564 52.199 1.776 1.783h-29.38l1.777-1.783a2.105 2.105 0 0 1 1.5-.626h22.826c.566 0 1.1.223 1.5.626Zm-6.178-2.06H28.082v-5.312h13.472v5.313Zm25.915-8.895c0 1.186-.955 2.15-2.13 2.15H4.297a2.142 2.142 0 0 1-2.13-2.15V39.14H67.47v5.688Z" fill="#1A2E35"/><path d="M34.818 45.203c1.17 0 2.123-.962 2.123-2.144a2.136 2.136 0 0 0-2.123-2.143c-1.17 0-2.122.962-2.122 2.143 0 1.182.952 2.144 2.122 2.144Zm0-2.853c.388 0 .703.318.703.71 0 .39-.315.71-.703.71a.707.707 0 0 1-.703-.71c0-.392.316-.71.703-.71ZM55.539 8.448H7.988c-.392 0-.71.32-.71.717 0 .396.318.716.71.716h47.55c.393 0 .71-.32.71-.716a.713.713 0 0 0-.71-.717ZM55.539 13.344H7.988c-.392 0-.71.32-.71.716 0 .396.318.717.71.717h47.55c.393 0 .71-.32.71-.717a.713.713 0 0 0-.71-.716ZM45.703 18.24H7.988c-.392 0-.71.32-.71.716 0 .396.318.717.71.717h37.715c.392 0 .71-.32.71-.717a.713.713 0 0 0-.71-.716ZM35.867 23.135H7.987c-.391 0-.709.32-.709.717 0 .396.318.717.71.717h27.88c.392 0 .709-.321.709-.717a.713.713 0 0 0-.71-.717ZM26.032 28.031H7.988c-.392 0-.71.32-.71.717 0 .396.318.717.71.717H26.03c.393 0 .71-.321.71-.717a.713.713 0 0 0-.71-.717Z" fill="#1A2E35"/></svg>