<svg width="59" height="59" fill="none" xmlns="http://www.w3.org/2000/svg"><g clip-path="url(#a)"><path d="M58.088 11.903v43.508a2.674 2.674 0 0 1-2.683 2.676H3.595a2.674 2.674 0 0 1-2.683-2.676V11.903h57.176Z" fill="#fff"/><path d="M58.088 3.595v8.308H.912V3.595A2.679 2.679 0 0 1 3.595.912h51.81a2.679 2.679 0 0 1 2.683 2.683Z" fill="#38BFF2"/><g fill="#D7E9FF"><path d="M8.257 6.405a1.403 1.403 0 0 1-2.805 0c0-.774.628-1.397 1.403-1.397.774 0 1.402.623 1.402 1.397ZM14.189 6.405a1.403 1.403 0 0 1-2.806 0c0-.774.629-1.397 1.403-1.397s1.403.623 1.403 1.397ZM20.12 6.405a1.403 1.403 0 0 1-2.806 0c0-.774.629-1.397 1.403-1.397.775 0 1.403.623 1.403 1.397ZM53.548 6.404c0 .775-.633 1.4-1.408 1.4H37.294c-.775 0-1.4-.625-1.4-1.4 0-.775.625-1.393 1.4-1.393H52.14c.775 0 1.408.618 1.408 1.393Z"/></g><g fill="#1A2E35"><path d="M55.405.304H3.595a3.294 3.294 0 0 0-3.29 3.29v51.817a3.291 3.291 0 0 0 3.29 3.285h51.81a3.291 3.291 0 0 0 3.29-3.285V3.595a3.294 3.294 0 0 0-3.29-3.29ZM1.521 3.594c0-1.143.93-2.073 2.074-2.073h51.81c1.144 0 2.074.93 2.074 2.074v7.7H1.521v-7.7Zm55.958 51.817c0 1.14-.93 2.068-2.074 2.068H3.595a2.074 2.074 0 0 1-2.074-2.068v-42.9h55.958v42.9Z"/><path d="M8.235 35.616c1.18 0 2.14.95 2.14 2.116v5.306c0 1.851 1.495 3.357 3.333 3.357a.608.608 0 1 0 0-1.217c-1.167 0-2.116-.96-2.116-2.14v-5.306a3.326 3.326 0 0 0-1.448-2.74 3.356 3.356 0 0 0 1.424-2.733v-5.306c0-1.18.95-2.14 2.116-2.14a.608.608 0 1 0 0-1.217c-1.837 0-3.332 1.506-3.332 3.357v5.306c0 1.162-.954 2.121-2.126 2.14-.8.013-.789 1.217.01 1.217ZM47.408 37.732v5.306c0 1.18-.949 2.14-2.116 2.14a.608.608 0 1 0 0 1.217c1.838 0 3.333-1.506 3.333-3.357v-5.306c0-1.167.96-2.116 2.14-2.116.799 0 .808-1.204.01-1.217-1.173-.019-2.127-.978-2.127-2.14v-5.306c0-1.851-1.495-3.357-3.332-3.357a.608.608 0 1 0 0 1.217c1.167 0 2.116.96 2.116 2.14v5.306c0 1.12.564 2.121 1.424 2.733a3.326 3.326 0 0 0-1.448 2.74ZM25.416 45.57a.608.608 0 0 0 .787-.348l7.729-20.014a.608.608 0 0 0-1.135-.439l-7.729 20.014a.608.608 0 0 0 .348.787ZM41.705 35.005l-7.012 4.739a.608.608 0 1 0 .681 1.008l7.756-5.242a.608.608 0 0 0 .002-1.008l-7.757-5.262a.608.608 0 0 0-.683 1.007l7.013 4.758ZM15.867 35.508l7.684 5.242a.608.608 0 0 0 .685-1.005l-6.948-4.74 6.95-4.76a.609.609 0 0 0-.689-1.004l-7.683 5.263a.61.61 0 0 0 .001 1.004ZM6.855 4.4c-1.109 0-2.01.9-2.01 2.005 0 1.109.901 2.01 2.01 2.01a2.013 2.013 0 0 0 2.011-2.01A2.01 2.01 0 0 0 6.855 4.4Zm0 2.8a.792.792 0 1 1 0-1.583c.438 0 .794.353.794.788a.796.796 0 0 1-.794.795ZM12.786 4.4a2.01 2.01 0 0 0-2.011 2.005c0 1.109.902 2.01 2.011 2.01s2.01-.901 2.01-2.01a2.01 2.01 0 0 0-2.01-2.005Zm0 2.8a.792.792 0 1 1 0-1.583.792.792 0 1 1 0 1.583ZM18.717 4.4a2.01 2.01 0 0 0-2.011 2.005c0 1.109.902 2.01 2.011 2.01s2.01-.901 2.01-2.01a2.01 2.01 0 0 0-2.01-2.005Zm0 2.8a.792.792 0 1 1 0-1.583.792.792 0 1 1 0 1.583ZM52.14 4.403H37.294a2.007 2.007 0 0 0-2.01 2.001c0 1.108.902 2.009 2.01 2.009H52.14a2.015 2.015 0 0 0 2.016-2.009 2.011 2.011 0 0 0-2.016-2.001Zm0 2.793H37.294a.793.793 0 0 1-.793-.792.78.78 0 0 1 .793-.785H52.14c.44 0 .8.352.8.785a.797.797 0 0 1-.8.792Z"/></g></g><defs><clipPath id="a"><path fill="#fff" d="M0 0h59v59H0z"/></clipPath></defs></svg>