<svg width="65" height="58" fill="none" xmlns="http://www.w3.org/2000/svg"><g stroke="#263238" stroke-width="1.5"><path d="M.75 6C.75 3.1 3.1.75 6 .75h38.526c2.9 0 5.25 2.35 5.25 5.25v29.27c0 2.899-2.35 5.25-5.25 5.25H19.818a10.75 10.75 0 0 0-4.905 1.183L2.57 48.032a1.25 1.25 0 0 1-1.82-1.113V6Z" fill="#fff"/><path d="M52.984 13.385H58a6 6 0 0 1 6 6V54.49c0 1.55-1.687 2.51-3.02 1.72l-9.006-5.339a10 10 0 0 0-5.1-1.398H27.872a5.416 5.416 0 0 1-5.416-5.415"/><rect x="10.478" y="12.635" width="30.693" height="3.731" rx="1.865" fill="#38BFF2"/><rect x="10.478" y="20.442" width="23.956" height="3.731" rx="1.865" fill="#38BFF2"/></g></svg>