<svg width="60" height="60" fill="none" xmlns="http://www.w3.org/2000/svg"><path d="M39.266 3.73v52.23a3.1 3.1 0 0 1-3.093 3.109H8.248a3.1 3.1 0 0 1-3.093-3.11V3.732A3.1 3.1 0 0 1 8.248.62h27.925a3.101 3.101 0 0 1 3.093 3.11Z" fill="#fff"/><path d="M30.814.622v2.482A2.48 2.48 0 0 1 28.34 5.59H16.08a2.48 2.48 0 0 1-2.474-2.487V.622h17.209ZM54.845 20.562v19.81a2.48 2.48 0 0 1-2.474 2.487h-30.16V18.075h30.16a2.48 2.48 0 0 1 2.474 2.487Z" fill="#38BFF2"/><path d="M22.21 23.158h32.635v6.163H22.21v-6.163Z" fill="#D7E9FF"/><g fill="#1A2E35"><path d="M14.056 54.716a.62.62 0 0 0-.619.622.62.62 0 0 0 .619.622h16.31a.62.62 0 0 0 .618-.622.62.62 0 0 0-.619-.622h-16.31ZM26.697 3.728H27.8a.62.62 0 0 0 .619-.622.62.62 0 0 0-.619-.621h-1.104a.62.62 0 0 0-.619.621.62.62 0 0 0 .619.622ZM16.62 3.728h7.178a.62.62 0 0 0 .619-.622.62.62 0 0 0-.619-.621H16.62a.62.62 0 0 0-.619.621.62.62 0 0 0 .618.622Z"/><path d="M52.37 17.453H39.886V3.731C39.885 1.673 38.22 0 36.173 0H8.248C6.2 0 4.537 1.673 4.537 3.73v52.23c0 2.057 1.664 3.73 3.71 3.73h27.926c2.047 0 3.712-1.673 3.712-3.73V43.48H52.37a3.104 3.104 0 0 0 3.092-3.108v-19.81a3.104 3.104 0 0 0-3.092-3.109Zm1.856 3.11v1.974H22.83v-3.84H52.37c1.023 0 1.855.837 1.855 1.865Zm0 8.136H22.83v-4.92h31.397v4.92ZM30.196 1.244v1.86A1.862 1.862 0 0 1 28.34 4.97H16.08a1.863 1.863 0 0 1-1.855-1.865v-1.86h15.971Zm8.452 54.716a2.483 2.483 0 0 1-2.475 2.487H8.248a2.483 2.483 0 0 1-2.474-2.487V3.73a2.483 2.483 0 0 1 2.474-2.486h4.74v1.86a3.104 3.104 0 0 0 3.093 3.109h12.26a3.104 3.104 0 0 0 3.092-3.109v-1.86h4.74a2.483 2.483 0 0 1 2.475 2.487v13.722h-15.82V14.65a.62.62 0 0 0-.618-.622.62.62 0 0 0-.619.622v31.63a.62.62 0 0 0 .619.621.62.62 0 0 0 .618-.621V43.48h15.82V55.96ZM52.37 42.237H22.829v-7.6h20.45a.62.62 0 0 0 .618-.621.62.62 0 0 0-.618-.622h-20.45v-3.451h31.397v10.429a1.863 1.863 0 0 1-1.855 1.865Z"/><path d="M43.279 37.542h-1.772a.62.62 0 0 0-.619.622.62.62 0 0 0 .619.622h1.772a.62.62 0 0 0 .618-.622.62.62 0 0 0-.618-.622ZM38.213 37.542h-1.772a.62.62 0 0 0-.618.622.62.62 0 0 0 .618.622h1.772a.62.62 0 0 0 .619-.622.62.62 0 0 0-.619-.622ZM33.148 37.542h-1.772a.62.62 0 0 0-.619.622.62.62 0 0 0 .619.622h1.772a.62.62 0 0 0 .618-.622.62.62 0 0 0-.618-.622ZM28.083 37.542H26.31a.62.62 0 0 0-.619.622.62.62 0 0 0 .619.622h1.772a.62.62 0 0 0 .618-.622.62.62 0 0 0-.618-.622Z"/></g></svg>