<svg width="88" height="32" fill="none" xmlns="http://www.w3.org/2000/svg"><g fill-rule="evenodd" clip-rule="evenodd"><path d="M31.861 12.864V27.95c.154 1.35 1.437 4.051 5.34 4.051h5.617v-3.038h-5.616c-.798 0-2.394-.442-2.394-2.21V12.865h6.629V9.55h-6.63V4.01h-2.946v5.54H27.81v3.314h4.051ZM76.2 12.864V27.95c.154 1.35 1.437 4.051 5.34 4.051h5.617v-3.038h-5.616c-.798 0-2.394-.442-2.394-2.21V12.865h6.629V9.55h-6.629V4.01h-2.946v5.54h-4.052v3.314h4.052Z" fill="#22253B"/><path d="M0 0h3.755l8.674 15.148L21.274 0h3.842L14.112 18.902h.002V32h-3.748V18.902h-.009L0 0Z" fill="#38BFF2"/><path d="M44.34 0h3.754l8.674 15.148L65.613 0h3.843L58.452 18.902h.002V32h-3.748V18.902h-.009L44.34 0Z" fill="#F15525"/></g></svg>