<svg width="91" height="90" fill="none" xmlns="http://www.w3.org/2000/svg"><path d="M89.593 44.284c0 6.896-5.643 12.477-12.616 12.477v-24.99c6.973 0 12.616 5.6 12.616 12.513Z" fill="#fff"/><path d="M73.79 6.102c-1.76 0-3.186 1.41-3.186 3.151V79.28c0 1.74 1.426 3.152 3.186 3.152s3.187-1.411 3.187-3.152V9.253c0-1.74-1.427-3.151-3.187-3.151Z" fill="#fff"/><path d="M70.607 11.526v65.48C63.517 64.293 46.33 56.845 32.393 56.16V32.372c13.937-.684 31.124-8.131 38.214-20.846Z" fill="#38BFF2"/><path d="M32.389 32.37v23.797c0 1.41-1.156 2.553-2.582 2.553H9.797c-1.427 0-2.583-1.143-2.583-2.553V32.369c0-1.41 1.156-2.553 2.582-2.553h20.01c1.427 0 2.583 1.143 2.583 2.553Z" fill="#fff"/><path d="M3.78 35.453h3.435v17.63H3.78c-1.313 0-2.374-1.049-2.374-2.348V37.8c0-1.299 1.06-2.347 2.374-2.347Z" fill="#38BFF2"/><path d="M25.508 27.34v2.471H14.1v-2.47c0-1.354 1.11-2.451 2.479-2.451h6.451c1.369 0 2.478 1.097 2.478 2.45Z" fill="#fff"/><path d="m18.39 82.69 7.45-23.97H13.763v23.468c0 .945.774 1.71 1.73 1.71h1.245c.759 0 1.43-.49 1.653-1.207Z" fill="#38BFF2"/><g fill="#1A2E35"><path d="M90.531 44.284c0-7.097-5.58-12.912-12.615-13.394V9.253c0-2.249-1.851-4.08-4.126-4.08-2.274 0-4.124 1.831-4.124 4.08v2.027c-6.903 12.128-23.37 19.216-36.497 20.113a3.509 3.509 0 0 0-3.362-2.505h-3.36V27.34c0-1.863-1.533-3.379-3.417-3.379H16.58c-1.884 0-3.417 1.516-3.417 3.38v1.547H9.797c-1.941 0-3.52 1.562-3.52 3.481v2.156H3.78c-1.826 0-3.312 1.47-3.312 3.275v12.936c0 1.805 1.486 3.274 3.312 3.274h2.496v2.157c0 1.919 1.579 3.48 3.52 3.48h3.028V82.19c0 1.454 1.197 2.637 2.667 2.637h1.245a2.65 2.65 0 0 0 2.55-1.863l7.246-23.315h3.274a3.508 3.508 0 0 0 3.363-2.508c13.126.897 29.594 7.985 36.495 20.112v2.027c0 2.249 1.85 4.08 4.125 4.08s4.125-1.831 4.125-4.08V57.642c7.036-.48 12.616-6.28 12.616-13.358ZM15.039 27.34c0-.84.69-1.523 1.54-1.523h6.451c.85 0 1.54.683 1.54 1.523v1.543H15.04V27.34ZM3.78 52.154a1.43 1.43 0 0 1-1.436-1.418V37.8c0-.783.645-1.42 1.436-1.42h2.496v15.774H3.78Zm13.712 30.264a.786.786 0 0 1-.756.552h-1.245a.787.787 0 0 1-.79-.781V59.648h9.869l-7.078 22.77Zm13.958-26.251c0 .896-.738 1.625-1.644 1.625H9.797c-.907 0-1.644-.73-1.644-1.625V32.369c0-.896.737-1.625 1.644-1.625h20.01c.906 0 1.644.73 1.644 1.625v23.798Zm1.88-.88v-22.04c12.688-.882 28.395-7.368 36.334-18.493v59.024C61.727 62.654 46.02 56.166 33.332 55.287ZM76.04 79.279c0 1.226-1.008 2.224-2.249 2.224-1.24 0-2.248-.998-2.248-2.224.004-86.123 0-63.75 0-70.026 0-1.226 1.008-2.224 2.248-2.224 1.24 0 2.25.998 2.25 2.224v70.026Zm1.876-23.483v-23.06c6.002.475 10.74 5.473 10.74 11.548 0 6.056-4.738 11.038-10.74 11.512Z"/><path d="M28.033 33.514H11.57a.932.932 0 0 0-.938.927c0 .513.42.928.938.928h16.462a.932.932 0 0 0 .938-.928.933.933 0 0 0-.938-.928ZM28.033 38.427H11.57a.932.932 0 0 0-.938.928c0 .513.42.928.938.928h16.462a.932.932 0 0 0 .938-.928.932.932 0 0 0-.938-.928ZM28.033 43.34H11.57a.932.932 0 0 0-.938.928c0 .513.42.928.938.928h16.462a.932.932 0 0 0 .938-.928.932.932 0 0 0-.938-.928ZM28.033 48.253H11.57a.932.932 0 0 0-.938.928c0 .513.42.927.938.927h16.462a.932.932 0 0 0 .938-.927.932.932 0 0 0-.938-.928ZM28.033 53.166H11.57a.932.932 0 0 0-.938.928c0 .512.42.927.938.927h16.462a.932.932 0 0 0 .938-.928.932.932 0 0 0-.938-.927Z"/></g></svg>